<svg width="900" height="666" viewBox="0 0 900 666" fill="none" xmlns="http://www.w3.org/2000/svg">
<path d="M633.822 278.096C633.822 278.096 521.677 317.572 474.875 315.206C428.073 312.84 147.823 439.753 177.924 504.267C208.026 568.78 538.299 439.943 538.299 439.943L700.163 347.523L633.822 278.096Z" fill="#FBBEBE"/>
<path opacity="0.1" d="M633.822 278.096C633.822 278.096 521.677 317.572 474.875 315.206C428.073 312.84 147.823 439.753 177.924 504.267C208.026 568.78 538.299 439.943 538.299 439.943L700.163 347.523L633.822 278.096Z" fill="#373737"/>
<path d="M597.463 281.321L650.85 336.977L1001.71 168.304L955.788 69.893C955.788 69.893 807.403 104.456 733.013 224.848C733.013 224.848 600.763 271.605 597.463 281.321Z" fill="#1E6B33"/>
<path d="M185.652 451.283C187.39 455.01 196.785 453.757 199.259 456.956C201.713 460.13 199.428 467.941 202.541 470.59C205.74 473.291 209.157 475.705 212.755 477.806C216.126 479.763 222.091 476.274 225.908 477.784C229.554 479.066 233.273 480.116 237.044 480.93C240.8 481.9 244.659 480.579 248.697 481.184C252.537 481.759 255.633 489.32 259.697 489.562C263.58 489.794 267.615 486.056 271.675 485.982C275.572 485.91 279.807 490.543 283.843 490.187C287.736 489.844 291.55 487.269 295.55 486.66C299.422 486.07 303.108 484.025 307.061 483.185C310.9 482.369 315.988 486.368 319.886 485.314C323.683 484.287 326.887 480.412 330.724 479.158C334.47 477.933 336.413 471.332 340.182 469.889C343.871 468.477 348.187 468.945 351.883 467.322C355.506 465.731 359.763 465.603 363.38 463.808C366.996 462.014 372.361 463.662 375.828 461.735C379.364 459.77 380.162 452.843 383.535 450.752C386.981 448.616 393.869 452.021 397.136 449.767C400.481 447.458 400.795 440.624 403.943 438.206C407.175 435.723 413.587 437.314 416.602 434.73C419.706 432.069 418.857 424.721 421.721 421.97C424.679 419.127 429.697 418.5 432.386 415.578C435.175 412.547 439.433 410.7 441.92 407.604C444.51 404.379 445.158 399.468 447.406 396.194C449.758 392.769 449.115 387.487 451.076 384.034C453.138 380.403 457.911 378.367 459.52 374.736C461.219 370.902 466.466 368.143 467.636 364.343C468.874 360.325 467.732 355.176 468.352 351.239C469.005 347.092 461.818 342.575 461.755 338.566C461.689 334.406 467.41 329.864 466.536 325.907C465.614 321.78 464.257 317.768 462.49 313.944C460.752 310.217 453.978 310.07 451.503 306.871C449.049 303.697 450.668 296.588 447.555 293.938C444.556 291.385 442.39 286.248 438.839 284.186C435.468 282.229 429.948 283.545 426.131 282.035C422.522 280.607 417.904 282 413.939 280.976C410.183 280.007 407.287 272.899 403.249 272.294C399.409 271.719 394.931 272.809 390.867 272.567C386.984 272.335 382.784 274.783 378.723 274.857C374.826 274.929 371.217 280.388 367.181 280.744C363.288 281.087 359.304 279.593 355.303 280.202C351.432 280.791 346.002 273.332 342.049 274.172C338.211 274.988 334.679 278.547 330.782 279.601C326.984 280.628 325.347 289.45 321.51 290.705C317.763 291.93 311.089 284.548 307.32 285.991C303.631 287.403 301.748 293.876 298.052 295.498C294.428 297.089 292.098 301.491 288.481 303.285C284.865 305.079 279.574 303.25 276.107 305.176C272.571 307.141 271.613 313.503 268.241 315.593C264.795 317.729 256.974 312.657 253.707 314.911C250.362 317.22 250.21 324.216 247.062 326.634C243.83 329.117 237.736 327.844 234.722 330.428C231.617 333.089 232.281 340.115 229.418 342.867C226.46 345.71 226.283 350.987 223.594 353.909C220.805 356.94 211.545 353.827 209.059 356.923C206.468 360.148 204.868 364.299 202.62 367.572C200.268 370.998 194.737 372.606 192.777 376.058C190.715 379.69 192.618 385.748 191.009 389.379C189.31 393.214 184.98 396.262 183.81 400.062C182.571 404.08 184.531 409.207 183.911 413.145C183.258 417.292 185.33 421.56 185.394 425.569C185.46 429.729 182.596 434.321 183.469 438.278C184.35 442.267 183.913 447.558 185.652 451.283Z" fill="#3A3A3A"/>
<path d="M598.912 330.421C598.912 330.421 449.515 326.437 383.343 388.889C317.171 451.341 189.64 463.44 183.55 483.967C177.46 504.493 230.864 666.518 387.618 599.525C544.372 532.532 658.454 432.846 658.454 432.846L598.912 330.421Z" fill="#FBBEBE"/>
<path d="M624.439 309.444C624.439 309.444 575.701 329.821 585.985 346.265C596.268 362.708 661.653 497.244 675.907 494.213C690.16 491.181 790.882 441.213 832.231 420.7L1065.48 304.985L967.669 95.3566C967.669 95.3566 797.535 167.254 734.735 250.925C734.735 250.925 634.619 298.769 624.439 309.444Z" fill="#258640"/>
<path d="M249.869 91.4799C254.512 89.5011 259.597 88.8951 264.555 89.7298C269.513 90.5645 274.147 92.807 277.939 96.2057C289.3 106.693 289.714 125.427 284.018 140.011C278.321 154.594 267.828 166.52 259.327 179.571C247.909 197.1 239.85 217.569 239.898 238.688C239.946 259.806 249.022 281.493 266.035 293.251C281.825 304.165 301.872 305.44 320.859 306.369" stroke="#373737" stroke-miterlimit="10"/>
<path d="M170.216 32.697C174.858 30.7182 179.944 30.1122 184.902 30.9469C189.859 31.7816 194.494 34.024 198.286 37.4228C209.647 47.9101 210.061 66.6443 204.364 81.2277C198.668 95.8111 188.174 107.737 179.674 120.788C168.256 138.318 160.196 158.786 160.245 179.905C160.293 201.023 169.369 222.71 186.381 234.468C202.172 245.382 222.219 246.657 241.205 247.586" stroke="#373737" stroke-miterlimit="10"/>
<path d="M39.3442 120.23C41.8398 115.735 45.5006 112.045 49.9159 109.575C54.3313 107.105 59.3268 105.953 64.3422 106.247C79.5499 107.368 90.998 121.922 95.1512 137.051C99.3045 152.18 98.0878 168.236 99.114 183.924C100.492 204.995 106.271 226.27 118.846 242.94C131.42 259.61 151.47 271.031 171.9 269.589C190.863 268.252 207.47 256.603 223.032 245.352" stroke="#373737" stroke-miterlimit="10"/>
<path d="M239.216 224.284C225.163 231.256 211.108 231.201 207.823 224.161C204.538 217.121 213.268 205.763 227.321 198.791C241.374 191.819 255.429 191.874 258.714 198.914C261.999 205.954 253.269 217.312 239.216 224.284Z" fill="#258640"/>
<path d="M241.377 220.519C227.323 227.491 213.268 227.436 209.984 220.396C206.699 213.357 215.428 201.998 229.482 195.026C243.535 188.055 257.59 188.11 260.874 195.149C264.159 202.189 255.43 213.548 241.377 220.519Z" stroke="#373737" stroke-miterlimit="10"/>
<path d="M178.982 240.7C164.929 247.672 150.874 247.617 147.59 240.577C144.305 233.538 153.034 222.179 167.088 215.207C181.141 208.236 195.196 208.291 198.48 215.33C201.765 222.37 193.036 233.729 178.982 240.7Z" fill="#258640"/>
<path d="M181.143 236.936C167.089 243.907 153.034 243.852 149.75 236.813C146.465 229.773 155.194 218.414 169.248 211.443C183.301 204.471 197.356 204.526 200.641 211.566C203.925 218.605 195.196 229.964 181.143 236.936Z" stroke="#373737" stroke-miterlimit="10"/>
<path d="M192.949 293.02C178.896 299.992 164.841 299.937 161.556 292.897C158.272 285.857 167.001 274.499 181.054 267.527C195.107 260.555 209.163 260.611 212.447 267.65C215.732 274.69 207.002 286.048 192.949 293.02Z" fill="#258640"/>
<path d="M195.109 289.255C181.056 296.227 167.001 296.172 163.716 289.132C160.432 282.093 169.161 270.734 183.214 263.762C197.268 256.791 211.323 256.846 214.607 263.885C217.892 270.925 209.163 282.284 195.109 289.255Z" stroke="#373737" stroke-miterlimit="10"/>
<path d="M142.128 170.111C128.075 177.082 114.02 177.027 110.736 169.987C107.451 162.948 116.18 151.589 130.233 144.617C144.287 137.646 158.342 137.701 161.626 144.741C164.911 151.78 156.182 163.139 142.128 170.111Z" fill="#258640"/>
<path d="M144.289 166.346C130.236 173.317 116.181 173.262 112.896 166.223C109.611 159.183 118.341 147.824 132.394 140.853C146.447 133.881 160.502 133.936 163.787 140.976C167.072 148.015 158.342 159.374 144.289 166.346Z" stroke="#373737" stroke-miterlimit="10"/>
<path d="M202.171 130.898C188.118 137.869 174.063 137.814 170.778 130.775C167.493 123.735 176.223 112.376 190.276 105.405C204.329 98.4329 218.384 98.488 221.669 105.528C224.954 112.567 216.224 123.926 202.171 130.898Z" fill="#258640"/>
<path d="M204.331 127.133C190.278 134.105 176.223 134.05 172.938 127.01C169.653 119.97 178.383 108.612 192.436 101.64C206.489 94.6681 220.544 94.7232 223.829 101.763C227.114 108.803 218.384 120.161 204.331 127.133Z" stroke="#373737" stroke-miterlimit="10"/>
<path d="M160.79 117.763C146.737 124.735 132.682 124.679 129.397 117.64C126.112 110.6 134.842 99.2415 148.895 92.2697C162.948 85.298 177.003 85.3531 180.288 92.3928C183.572 99.4325 174.843 110.791 160.79 117.763Z" fill="#258640"/>
<path d="M162.95 113.998C148.897 120.97 134.842 120.915 131.557 113.875C128.272 106.835 137.002 95.4766 151.055 88.5049C165.108 81.5331 179.163 81.5882 182.448 88.6279C185.733 95.6677 177.003 107.026 162.95 113.998Z" stroke="#373737" stroke-miterlimit="10"/>
<path d="M100.787 154.263C86.734 161.234 72.6789 161.179 69.3942 154.14C66.1096 147.1 74.8391 135.741 88.8922 128.77C102.945 121.798 117 121.853 120.285 128.893C123.57 135.932 114.84 147.291 100.787 154.263Z" fill="#258640"/>
<path d="M102.947 150.498C88.8942 157.47 74.839 157.415 71.5544 150.375C68.2697 143.335 76.9992 131.977 91.0524 125.005C105.106 118.033 119.161 118.088 122.445 125.128C125.73 132.168 117 143.526 102.947 150.498Z" stroke="#373737" stroke-miterlimit="10"/>
<path d="M70.9736 213.49C56.9205 220.461 42.8654 220.406 39.5807 213.367C36.296 206.327 45.0255 194.968 59.0787 187.997C73.1318 181.025 87.1869 181.08 90.4716 188.12C93.7563 195.159 85.0268 206.518 70.9736 213.49Z" fill="#258640"/>
<path d="M73.1341 209.725C59.0809 216.697 45.0259 216.641 41.7412 209.602C38.4565 202.562 47.186 191.204 61.2391 184.232C75.2923 177.26 89.3473 177.315 92.632 184.355C95.9167 191.395 87.1872 202.753 73.1341 209.725Z" stroke="#373737" stroke-miterlimit="10"/>
<path d="M205.718 68.5429C191.664 75.5146 177.609 75.4595 174.325 68.4198C171.04 61.3801 179.769 50.0216 193.823 43.0498C207.876 36.0781 221.931 36.1332 225.216 43.1729C228.5 50.2126 219.771 61.5711 205.718 68.5429Z" fill="#258640"/>
<path d="M207.878 64.7781C193.825 71.7499 179.769 71.6947 176.485 64.655C173.2 57.6153 181.93 46.2568 195.983 39.285C210.036 32.3133 224.091 32.3684 227.376 39.4081C230.66 46.4478 221.931 57.8064 207.878 64.7781Z" stroke="#373737" stroke-miterlimit="10"/>
<path d="M164.34 46.1165C150.287 53.0883 136.232 53.0332 132.947 45.9934C129.663 38.9537 138.392 27.5952 152.445 20.6235C166.499 13.6517 180.554 13.7068 183.838 20.7465C187.123 27.7863 178.394 39.1448 164.34 46.1165Z" fill="#258640"/>
<path d="M165.34 38.1165C151.287 45.0883 137.232 45.0332 133.947 37.9935C130.663 30.9537 139.392 19.5952 153.445 12.6235C167.499 5.65171 181.554 5.70682 184.838 12.7465C188.123 19.7863 179.394 31.1448 165.34 38.1165Z" stroke="#373737" stroke-miterlimit="10"/>
<path d="M37.3403 138.609C23.2872 145.581 9.23211 145.526 5.94742 138.486C2.66272 131.446 11.3922 120.088 25.4454 113.116C39.4985 106.144 53.5536 106.199 56.8383 113.239C60.123 120.279 51.3935 131.637 37.3403 138.609Z" fill="#258640"/>
<path d="M39.5008 134.844C25.4476 141.816 11.3925 141.761 8.10782 134.721C4.82312 127.681 13.5527 116.323 27.6058 109.351C41.659 102.379 55.714 102.434 58.9987 109.474C62.2834 116.514 53.5539 127.872 39.5008 134.844Z" stroke="#373737" stroke-miterlimit="10"/>
<path d="M318.589 122.966C304.536 129.937 290.481 129.882 287.196 122.842C283.911 115.803 292.641 104.444 306.694 97.4725C320.747 90.5007 334.802 90.5558 338.087 97.5955C341.372 104.635 332.642 115.994 318.589 122.966Z" fill="#258640"/>
<path d="M320.749 119.201C306.696 126.172 292.641 126.117 289.356 119.078C286.072 112.038 294.801 100.679 308.854 93.7076C322.908 86.7358 336.963 86.7909 340.247 93.8307C343.532 100.87 334.802 112.229 320.749 119.201Z" stroke="#373737" stroke-miterlimit="10"/>
<path d="M227.529 160.061C213.476 167.033 199.421 166.978 196.136 159.938C192.851 152.898 201.581 141.54 215.634 134.568C229.687 127.596 243.742 127.651 247.027 134.691C250.312 141.731 241.582 153.089 227.529 160.061Z" fill="#258640"/>
<path d="M229.689 156.296C215.636 163.268 201.581 163.213 198.296 156.173C195.012 149.133 203.741 137.775 217.794 130.803C231.847 123.831 245.903 123.886 249.187 130.926C252.472 137.966 243.742 149.324 229.689 156.296Z" stroke="#373737" stroke-miterlimit="10"/>
<path d="M116.556 227.234C102.503 234.205 88.4477 234.15 85.163 227.111C81.8783 220.071 90.6078 208.712 104.661 201.741C118.714 194.769 132.769 194.824 136.054 201.864C139.339 208.903 130.609 220.262 116.556 227.234Z" fill="#258640"/>
<path d="M118.716 223.469C104.663 230.441 90.6081 230.385 87.3234 223.346C84.0387 216.306 92.7683 204.947 106.821 197.976C120.875 191.004 134.93 191.059 138.214 198.099C141.499 205.138 132.769 216.497 118.716 223.469Z" stroke="#373737" stroke-miterlimit="10"/>
<path d="M180.09 201.101C166.037 208.072 151.982 208.017 148.697 200.978C145.412 193.938 154.142 182.579 168.195 175.608C182.248 168.636 196.303 168.691 199.588 175.731C202.873 182.77 194.143 194.129 180.09 201.101Z" fill="#258640"/>
<path d="M182.25 197.336C168.197 204.308 154.142 204.252 150.857 197.213C147.573 190.173 156.302 178.815 170.355 171.843C184.408 164.871 198.464 164.926 201.748 171.966C205.033 179.006 196.303 190.364 182.25 197.336Z" stroke="#373737" stroke-miterlimit="10"/>
<path d="M124.829 93.8593C110.776 100.831 96.7209 100.776 93.4362 93.7362C90.1515 86.6965 98.881 75.338 112.934 68.3663C126.987 61.3945 141.042 61.4496 144.327 68.4893C147.612 75.529 138.882 86.8876 124.829 93.8593Z" fill="#258640"/>
<path d="M126.99 90.0945C112.936 97.0662 98.8813 97.0111 95.5966 89.9714C92.3119 82.9317 101.041 71.5732 115.095 64.6014C129.148 57.6297 143.203 57.6848 146.488 64.7245C149.772 71.7642 141.043 83.1227 126.99 90.0945Z" stroke="#373737" stroke-miterlimit="10"/>
<path d="M265.665 107.478C251.612 114.449 237.557 114.394 234.272 107.355C230.987 100.315 239.717 88.9564 253.77 81.9846C267.823 75.0129 281.878 75.068 285.163 82.1077C288.447 89.1474 279.718 100.506 265.665 107.478Z" fill="#258640"/>
<path d="M267.825 103.713C253.772 110.685 239.717 110.629 236.432 103.59C233.147 96.5501 241.877 85.1915 255.93 78.2198C269.983 71.248 284.038 71.3031 287.323 78.3428C290.608 85.3826 281.878 96.7411 267.825 103.713Z" stroke="#373737" stroke-miterlimit="10"/>
<path d="M273.781 164.047C259.728 171.019 245.673 170.963 242.388 163.924C239.103 156.884 247.833 145.525 261.886 138.554C275.939 131.582 289.994 131.637 293.279 138.677C296.563 145.716 287.834 157.075 273.781 164.047Z" fill="#258640"/>
<path d="M275.941 160.282C261.888 167.254 247.833 167.199 244.548 160.159C241.263 153.119 249.993 141.761 264.046 134.789C278.099 127.817 292.154 127.872 295.439 134.912C298.724 141.952 289.994 153.31 275.941 160.282Z" stroke="#373737" stroke-miterlimit="10"/>
<g opacity="0.3">
<path d="M307.851 238.627C301.166 233.781 297.397 227.433 299.431 224.448C301.466 221.463 308.534 222.972 315.219 227.818C321.903 232.664 325.673 239.013 323.638 241.998C321.603 244.982 314.535 243.474 307.851 238.627Z" fill="#258640"/>
<path d="M309.995 238.797C303.311 233.951 299.541 227.602 301.576 224.617C303.611 221.633 310.679 223.141 317.363 227.987C324.048 232.834 327.817 239.182 325.783 242.167C323.748 245.152 316.68 243.643 309.995 238.797Z" stroke="#373737" stroke-miterlimit="10"/>
</g>
<g opacity="0.3">
<path d="M190.043 336.201C186.774 334.806 186.655 327.363 189.778 319.578C192.902 311.792 198.084 306.612 201.354 308.008C204.623 309.403 204.742 316.846 201.619 324.631C198.495 332.416 193.313 337.597 190.043 336.201Z" fill="#258640"/>
<path d="M189.734 334.006C186.465 332.61 186.346 325.168 189.47 317.382C192.593 309.597 197.775 304.417 201.045 305.812C204.315 307.208 204.433 314.65 201.31 322.436C198.186 330.221 193.004 335.401 189.734 334.006Z" stroke="#373737" stroke-miterlimit="10"/>
</g>
<g opacity="0.3">
<path d="M276.646 208.404C273.376 207.009 273.258 199.566 276.381 191.781C279.504 183.995 284.687 178.815 287.956 180.211C291.226 181.606 291.345 189.049 288.221 196.834C285.098 204.619 279.915 209.8 276.646 208.404Z" fill="#258640"/>
<path d="M276.337 206.209C273.067 204.813 272.949 197.371 276.072 189.585C279.195 181.8 284.378 176.62 287.648 178.015C290.917 179.411 291.036 186.853 287.912 194.639C284.789 202.424 279.607 207.604 276.337 206.209Z" stroke="#373737" stroke-miterlimit="10"/>
</g>
</svg>
